<mxfile host="app.diagrams.net" modified="2021-03-04T14:13:54.246Z" agent="5.0 (Windows)" etag="6FBd6L69-5QHk6rehleu" version="14.4.4" type="github">
  <diagram id="UQyLXl9a_MGCBrZ4A5Hq" name="Page-1">
    <mxGraphModel dx="1038" dy="1677" grid="1" gridSize="10" guides="1" tooltips="1" connect="1" arrows="1" fold="1" page="1" pageScale="1" pageWidth="850" pageHeight="1100" math="0" shadow="0">
      <root>
        <mxCell id="0" />
        <mxCell id="1" parent="0" />
        <mxCell id="qw-UVNlcl3JzZN6nI1bn-23" value="" style="shape=ext;double=1;whiteSpace=wrap;html=1;aspect=fixed;fillColor=#000000;fontSize=5;" vertex="1" parent="1">
          <mxGeometry x="140" y="210" width="20" height="20" as="geometry" />
        </mxCell>
        <mxCell id="qw-UVNlcl3JzZN6nI1bn-24" value="" style="shape=ext;double=1;whiteSpace=wrap;html=1;aspect=fixed;fillColor=#000000;fontSize=5;" vertex="1" parent="1">
          <mxGeometry x="120" y="330" width="20" height="20" as="geometry" />
        </mxCell>
        <mxCell id="qw-UVNlcl3JzZN6nI1bn-25" value="" style="shape=ext;double=1;whiteSpace=wrap;html=1;aspect=fixed;fillColor=#000000;fontSize=5;" vertex="1" parent="1">
          <mxGeometry x="300" y="40" width="20" height="20" as="geometry" />
        </mxCell>
        <mxCell id="qw-UVNlcl3JzZN6nI1bn-26" value="" style="shape=ext;double=1;whiteSpace=wrap;html=1;aspect=fixed;fillColor=#000000;fontSize=5;" vertex="1" parent="1">
          <mxGeometry x="200" y="120" width="20" height="20" as="geometry" />
        </mxCell>
        <mxCell id="qw-UVNlcl3JzZN6nI1bn-27" value="" style="shape=ext;double=1;whiteSpace=wrap;html=1;aspect=fixed;fillColor=#000000;fontSize=5;" vertex="1" parent="1">
          <mxGeometry x="630" y="180" width="20" height="20" as="geometry" />
        </mxCell>
        <mxCell id="qw-UVNlcl3JzZN6nI1bn-28" value="" style="shape=ext;double=1;whiteSpace=wrap;html=1;aspect=fixed;fillColor=#000000;fontSize=5;" vertex="1" parent="1">
          <mxGeometry x="650" y="290" width="20" height="20" as="geometry" />
        </mxCell>
        <mxCell id="qw-UVNlcl3JzZN6nI1bn-29" value="" style="shape=ext;double=1;whiteSpace=wrap;html=1;aspect=fixed;fillColor=#000000;fontSize=5;" vertex="1" parent="1">
          <mxGeometry x="415" y="570" width="20" height="20" as="geometry" />
        </mxCell>
        <mxCell id="qw-UVNlcl3JzZN6nI1bn-30" value="" style="shape=ext;double=1;whiteSpace=wrap;html=1;aspect=fixed;fillColor=#000000;fontSize=5;" vertex="1" parent="1">
          <mxGeometry x="200" y="510" width="20" height="20" as="geometry" />
        </mxCell>
        <mxCell id="qw-UVNlcl3JzZN6nI1bn-32" value="" style="shape=ext;double=1;whiteSpace=wrap;html=1;aspect=fixed;fillColor=#000000;fontSize=5;" vertex="1" parent="1">
          <mxGeometry x="560" y="80" width="20" height="20" as="geometry" />
        </mxCell>
        <mxCell id="qw-UVNlcl3JzZN6nI1bn-33" value="" style="shape=ext;double=1;whiteSpace=wrap;html=1;aspect=fixed;fillColor=#000000;fontSize=5;" vertex="1" parent="1">
          <mxGeometry x="435" y="30" width="20" height="20" as="geometry" />
        </mxCell>
        <mxCell id="qw-UVNlcl3JzZN6nI1bn-37" value="&lt;p style=&quot;font-size: 18px&quot;&gt;&lt;font style=&quot;font-size: 18px&quot;&gt;10&lt;/font&gt;&lt;/p&gt;" style="text;html=1;strokeColor=none;fillColor=none;align=center;verticalAlign=middle;whiteSpace=wrap;rounded=0;fontSize=5;" vertex="1" parent="1">
          <mxGeometry x="640" y="160" width="40" height="20" as="geometry" />
        </mxCell>
        <mxCell id="qw-UVNlcl3JzZN6nI1bn-38" value="&lt;p style=&quot;font-size: 18px&quot;&gt;5&lt;/p&gt;" style="text;html=1;strokeColor=none;fillColor=none;align=center;verticalAlign=middle;whiteSpace=wrap;rounded=0;fontSize=5;" vertex="1" parent="1">
          <mxGeometry x="435" y="590" width="40" height="20" as="geometry" />
        </mxCell>
        <mxCell id="qw-UVNlcl3JzZN6nI1bn-39" value="&lt;p style=&quot;font-size: 18px&quot;&gt;&lt;font style=&quot;font-size: 18px&quot;&gt;6&lt;/font&gt;&lt;/p&gt;" style="text;html=1;strokeColor=none;fillColor=none;align=center;verticalAlign=middle;whiteSpace=wrap;rounded=0;fontSize=5;" vertex="1" parent="1">
          <mxGeometry x="550" y="540" width="40" height="20" as="geometry" />
        </mxCell>
        <mxCell id="qw-UVNlcl3JzZN6nI1bn-40" value="&lt;p style=&quot;font-size: 18px&quot;&gt;7&lt;/p&gt;" style="text;html=1;strokeColor=none;fillColor=none;align=center;verticalAlign=middle;whiteSpace=wrap;rounded=0;fontSize=5;" vertex="1" parent="1">
          <mxGeometry x="620" y="480" width="40" height="20" as="geometry" />
        </mxCell>
        <mxCell id="qw-UVNlcl3JzZN6nI1bn-41" value="&lt;p style=&quot;font-size: 18px&quot;&gt;8&lt;/p&gt;" style="text;html=1;strokeColor=none;fillColor=none;align=center;verticalAlign=middle;whiteSpace=wrap;rounded=0;fontSize=5;" vertex="1" parent="1">
          <mxGeometry x="670" y="390" width="40" height="20" as="geometry" />
        </mxCell>
        <mxCell id="qw-UVNlcl3JzZN6nI1bn-42" value="&lt;p style=&quot;font-size: 18px&quot;&gt;9&lt;/p&gt;" style="text;html=1;strokeColor=none;fillColor=none;align=center;verticalAlign=middle;whiteSpace=wrap;rounded=0;fontSize=5;" vertex="1" parent="1">
          <mxGeometry x="670" y="280" width="40" height="20" as="geometry" />
        </mxCell>
        <mxCell id="qw-UVNlcl3JzZN6nI1bn-43" value="&lt;p style=&quot;font-size: 18px&quot;&gt;3&lt;/p&gt;" style="text;html=1;strokeColor=none;fillColor=none;align=center;verticalAlign=middle;whiteSpace=wrap;rounded=0;fontSize=5;" vertex="1" parent="1">
          <mxGeometry x="160" y="510" width="40" height="20" as="geometry" />
        </mxCell>
        <mxCell id="qw-UVNlcl3JzZN6nI1bn-44" value="&lt;p style=&quot;font-size: 18px&quot;&gt;2&lt;/p&gt;" style="text;html=1;strokeColor=none;fillColor=none;align=center;verticalAlign=middle;whiteSpace=wrap;rounded=0;fontSize=5;" vertex="1" parent="1">
          <mxGeometry x="100" y="430" width="40" height="20" as="geometry" />
        </mxCell>
        <mxCell id="qw-UVNlcl3JzZN6nI1bn-45" value="&lt;p style=&quot;font-size: 18px&quot;&gt;&lt;font style=&quot;font-size: 18px&quot;&gt;1&lt;/font&gt;&lt;/p&gt;" style="text;html=1;strokeColor=none;fillColor=none;align=center;verticalAlign=middle;whiteSpace=wrap;rounded=0;fontSize=5;" vertex="1" parent="1">
          <mxGeometry x="80" y="320" width="40" height="20" as="geometry" />
        </mxCell>
        <mxCell id="qw-UVNlcl3JzZN6nI1bn-49" value="&lt;p style=&quot;font-size: 18px&quot;&gt;4&lt;/p&gt;" style="text;html=1;strokeColor=none;fillColor=none;align=center;verticalAlign=middle;whiteSpace=wrap;rounded=0;fontSize=5;" vertex="1" parent="1">
          <mxGeometry x="250" y="570" width="40" height="20" as="geometry" />
        </mxCell>
        <mxCell id="qw-UVNlcl3JzZN6nI1bn-66" value="" style="shape=ext;double=1;whiteSpace=wrap;html=1;aspect=fixed;fillColor=#000000;fontSize=5;" vertex="1" parent="1">
          <mxGeometry x="290" y="560" width="20" height="20" as="geometry" />
        </mxCell>
        <mxCell id="qw-UVNlcl3JzZN6nI1bn-67" value="" style="shape=ext;double=1;whiteSpace=wrap;html=1;aspect=fixed;fillColor=#000000;fontSize=5;" vertex="1" parent="1">
          <mxGeometry x="140" y="430" width="20" height="20" as="geometry" />
        </mxCell>
        <mxCell id="qw-UVNlcl3JzZN6nI1bn-68" value="" style="shape=ext;double=1;whiteSpace=wrap;html=1;aspect=fixed;fillColor=#000000;fontSize=5;" vertex="1" parent="1">
          <mxGeometry x="600" y="490" width="20" height="20" as="geometry" />
        </mxCell>
        <mxCell id="qw-UVNlcl3JzZN6nI1bn-69" value="" style="shape=ext;double=1;whiteSpace=wrap;html=1;aspect=fixed;fillColor=#000000;fontSize=5;" vertex="1" parent="1">
          <mxGeometry x="530" y="550" width="20" height="20" as="geometry" />
        </mxCell>
        <mxCell id="qw-UVNlcl3JzZN6nI1bn-73" value="&lt;p style=&quot;font-size: 18px&quot;&gt;&lt;font style=&quot;font-size: 18px&quot;&gt;15&lt;/font&gt;&lt;/p&gt;" style="text;html=1;strokeColor=none;fillColor=none;align=center;verticalAlign=middle;whiteSpace=wrap;rounded=0;fontSize=5;" vertex="1" parent="1">
          <mxGeometry x="100" y="200" width="40" height="20" as="geometry" />
        </mxCell>
        <mxCell id="qw-UVNlcl3JzZN6nI1bn-74" value="&lt;p style=&quot;font-size: 18px&quot;&gt;&lt;font style=&quot;font-size: 18px&quot;&gt;14&lt;/font&gt;&lt;/p&gt;" style="text;html=1;strokeColor=none;fillColor=none;align=center;verticalAlign=middle;whiteSpace=wrap;rounded=0;fontSize=5;" vertex="1" parent="1">
          <mxGeometry x="160" y="100" width="40" height="20" as="geometry" />
        </mxCell>
        <mxCell id="qw-UVNlcl3JzZN6nI1bn-75" value="&lt;p style=&quot;font-size: 18px&quot;&gt;&lt;font style=&quot;font-size: 18px&quot;&gt;13&lt;/font&gt;&lt;/p&gt;" style="text;html=1;strokeColor=none;fillColor=none;align=center;verticalAlign=middle;whiteSpace=wrap;rounded=0;fontSize=5;" vertex="1" parent="1">
          <mxGeometry x="260" y="30" width="40" height="20" as="geometry" />
        </mxCell>
        <mxCell id="qw-UVNlcl3JzZN6nI1bn-76" value="&lt;p style=&quot;font-size: 18px&quot;&gt;&lt;font style=&quot;font-size: 18px&quot;&gt;12&lt;/font&gt;&lt;/p&gt;" style="text;html=1;strokeColor=none;fillColor=none;align=center;verticalAlign=middle;whiteSpace=wrap;rounded=0;fontSize=5;" vertex="1" parent="1">
          <mxGeometry x="405" y="10" width="40" height="20" as="geometry" />
        </mxCell>
        <mxCell id="qw-UVNlcl3JzZN6nI1bn-77" value="&lt;p style=&quot;font-size: 18px&quot;&gt;&lt;font style=&quot;font-size: 18px&quot;&gt;11&lt;/font&gt;&lt;/p&gt;" style="text;html=1;strokeColor=none;fillColor=none;align=center;verticalAlign=middle;whiteSpace=wrap;rounded=0;fontSize=5;" vertex="1" parent="1">
          <mxGeometry x="580" y="60" width="40" height="20" as="geometry" />
        </mxCell>
        <mxCell id="qw-UVNlcl3JzZN6nI1bn-81" value="" style="endArrow=none;html=1;fontSize=5;" edge="1" parent="1" source="qw-UVNlcl3JzZN6nI1bn-28" target="qw-UVNlcl3JzZN6nI1bn-68">
          <mxGeometry width="50" height="50" relative="1" as="geometry">
            <mxPoint x="655" y="300" as="sourcePoint" />
            <mxPoint x="390" y="170" as="targetPoint" />
          </mxGeometry>
        </mxCell>
        <mxCell id="qw-UVNlcl3JzZN6nI1bn-82" value="" style="endArrow=none;html=1;fontSize=5;" edge="1" parent="1" source="qw-UVNlcl3JzZN6nI1bn-25" target="qw-UVNlcl3JzZN6nI1bn-68">
          <mxGeometry width="50" height="50" relative="1" as="geometry">
            <mxPoint x="340" y="220" as="sourcePoint" />
            <mxPoint x="390" y="170" as="targetPoint" />
          </mxGeometry>
        </mxCell>
        <mxCell id="qw-UVNlcl3JzZN6nI1bn-83" value="" style="endArrow=none;html=1;fontSize=5;" edge="1" parent="1" source="qw-UVNlcl3JzZN6nI1bn-29" target="qw-UVNlcl3JzZN6nI1bn-68">
          <mxGeometry width="50" height="50" relative="1" as="geometry">
            <mxPoint x="425" y="580" as="sourcePoint" />
            <mxPoint x="610" y="500" as="targetPoint" />
          </mxGeometry>
        </mxCell>
        <mxCell id="qw-UVNlcl3JzZN6nI1bn-84" value="" style="endArrow=none;html=1;fontSize=5;" edge="1" parent="1" source="qw-UVNlcl3JzZN6nI1bn-26">
          <mxGeometry width="50" height="50" relative="1" as="geometry">
            <mxPoint x="210" y="130" as="sourcePoint" />
            <mxPoint x="660" y="300" as="targetPoint" />
          </mxGeometry>
        </mxCell>
        <mxCell id="qw-UVNlcl3JzZN6nI1bn-86" value="" style="endArrow=none;html=1;fontSize=5;exitX=0.5;exitY=1;exitDx=0;exitDy=0;" edge="1" parent="1" source="qw-UVNlcl3JzZN6nI1bn-67" target="qw-UVNlcl3JzZN6nI1bn-33">
          <mxGeometry width="50" height="50" relative="1" as="geometry">
            <mxPoint x="340" y="220" as="sourcePoint" />
            <mxPoint x="390" y="170" as="targetPoint" />
          </mxGeometry>
        </mxCell>
        <mxCell id="qw-UVNlcl3JzZN6nI1bn-87" value="" style="endArrow=none;html=1;fontSize=5;" edge="1" parent="1" source="qw-UVNlcl3JzZN6nI1bn-70">
          <mxGeometry width="50" height="50" relative="1" as="geometry">
            <mxPoint x="160" y="440" as="sourcePoint" />
            <mxPoint x="660" y="400" as="targetPoint" />
          </mxGeometry>
        </mxCell>
        <mxCell id="qw-UVNlcl3JzZN6nI1bn-88" value="" style="endArrow=none;html=1;fontSize=5;" edge="1" parent="1" source="qw-UVNlcl3JzZN6nI1bn-29" target="qw-UVNlcl3JzZN6nI1bn-33">
          <mxGeometry width="50" height="50" relative="1" as="geometry">
            <mxPoint x="420" y="580" as="sourcePoint" />
            <mxPoint x="390" y="170" as="targetPoint" />
          </mxGeometry>
        </mxCell>
        <mxCell id="qw-UVNlcl3JzZN6nI1bn-89" value="" style="endArrow=none;html=1;fontSize=5;" edge="1" parent="1" source="qw-UVNlcl3JzZN6nI1bn-70" target="qw-UVNlcl3JzZN6nI1bn-29">
          <mxGeometry width="50" height="50" relative="1" as="geometry">
            <mxPoint x="660" y="400" as="sourcePoint" />
            <mxPoint x="420" y="580" as="targetPoint" />
          </mxGeometry>
        </mxCell>
        <mxCell id="qw-UVNlcl3JzZN6nI1bn-91" value="" style="endArrow=none;html=1;fontSize=5;" edge="1" parent="1" source="qw-UVNlcl3JzZN6nI1bn-66" target="qw-UVNlcl3JzZN6nI1bn-33">
          <mxGeometry width="50" height="50" relative="1" as="geometry">
            <mxPoint x="340" y="220" as="sourcePoint" />
            <mxPoint x="390" y="170" as="targetPoint" />
          </mxGeometry>
        </mxCell>
        <mxCell id="qw-UVNlcl3JzZN6nI1bn-93" value="" style="endArrow=none;html=1;fontSize=5;" edge="1" parent="1" source="qw-UVNlcl3JzZN6nI1bn-27" target="qw-UVNlcl3JzZN6nI1bn-26">
          <mxGeometry width="50" height="50" relative="1" as="geometry">
            <mxPoint x="630" y="190" as="sourcePoint" />
            <mxPoint x="210" y="130" as="targetPoint" />
          </mxGeometry>
        </mxCell>
        <mxCell id="qw-UVNlcl3JzZN6nI1bn-94" value="" style="endArrow=none;html=1;fontSize=5;" edge="1" parent="1" source="qw-UVNlcl3JzZN6nI1bn-30" target="qw-UVNlcl3JzZN6nI1bn-69">
          <mxGeometry width="50" height="50" relative="1" as="geometry">
            <mxPoint x="340" y="220" as="sourcePoint" />
            <mxPoint x="530" y="560" as="targetPoint" />
          </mxGeometry>
        </mxCell>
        <mxCell id="qw-UVNlcl3JzZN6nI1bn-95" value="" style="endArrow=none;html=1;fontSize=5;" edge="1" parent="1" source="qw-UVNlcl3JzZN6nI1bn-30" target="qw-UVNlcl3JzZN6nI1bn-26">
          <mxGeometry width="50" height="50" relative="1" as="geometry">
            <mxPoint x="340" y="220" as="sourcePoint" />
            <mxPoint x="390" y="170" as="targetPoint" />
          </mxGeometry>
        </mxCell>
        <mxCell id="qw-UVNlcl3JzZN6nI1bn-96" value="" style="endArrow=none;html=1;fontSize=5;" edge="1" parent="1" source="qw-UVNlcl3JzZN6nI1bn-24" target="qw-UVNlcl3JzZN6nI1bn-26">
          <mxGeometry width="50" height="50" relative="1" as="geometry">
            <mxPoint x="130" y="340" as="sourcePoint" />
            <mxPoint x="210" y="140" as="targetPoint" />
          </mxGeometry>
        </mxCell>
        <mxCell id="qw-UVNlcl3JzZN6nI1bn-97" value="" style="endArrow=none;html=1;fontSize=5;" edge="1" parent="1" source="qw-UVNlcl3JzZN6nI1bn-23" target="qw-UVNlcl3JzZN6nI1bn-32">
          <mxGeometry width="50" height="50" relative="1" as="geometry">
            <mxPoint x="340" y="220" as="sourcePoint" />
            <mxPoint x="550" y="110" as="targetPoint" />
          </mxGeometry>
        </mxCell>
        <mxCell id="qw-UVNlcl3JzZN6nI1bn-98" value="" style="endArrow=none;html=1;fontSize=5;" edge="1" parent="1" source="qw-UVNlcl3JzZN6nI1bn-66" target="qw-UVNlcl3JzZN6nI1bn-23">
          <mxGeometry width="50" height="50" relative="1" as="geometry">
            <mxPoint x="300" y="570" as="sourcePoint" />
            <mxPoint x="390" y="170" as="targetPoint" />
          </mxGeometry>
        </mxCell>
        <mxCell id="qw-UVNlcl3JzZN6nI1bn-99" value="" style="endArrow=none;html=1;fontSize=5;" edge="1" parent="1" source="qw-UVNlcl3JzZN6nI1bn-24" target="qw-UVNlcl3JzZN6nI1bn-32">
          <mxGeometry width="50" height="50" relative="1" as="geometry">
            <mxPoint x="130" y="340" as="sourcePoint" />
            <mxPoint x="540" y="120" as="targetPoint" />
          </mxGeometry>
        </mxCell>
        <mxCell id="qw-UVNlcl3JzZN6nI1bn-100" value="" style="endArrow=none;html=1;fontSize=5;" edge="1" parent="1" source="qw-UVNlcl3JzZN6nI1bn-66" target="qw-UVNlcl3JzZN6nI1bn-32">
          <mxGeometry width="50" height="50" relative="1" as="geometry">
            <mxPoint x="300" y="570" as="sourcePoint" />
            <mxPoint x="390" y="170" as="targetPoint" />
          </mxGeometry>
        </mxCell>
        <mxCell id="qw-UVNlcl3JzZN6nI1bn-70" value="" style="shape=ext;double=1;whiteSpace=wrap;html=1;aspect=fixed;fillColor=#000000;fontSize=5;" vertex="1" parent="1">
          <mxGeometry x="650" y="390" width="20" height="20" as="geometry" />
        </mxCell>
        <mxCell id="qw-UVNlcl3JzZN6nI1bn-101" value="" style="endArrow=none;html=1;fontSize=5;" edge="1" parent="1" source="qw-UVNlcl3JzZN6nI1bn-67" target="qw-UVNlcl3JzZN6nI1bn-70">
          <mxGeometry width="50" height="50" relative="1" as="geometry">
            <mxPoint x="160" y="440" as="sourcePoint" />
            <mxPoint x="660" y="400" as="targetPoint" />
          </mxGeometry>
        </mxCell>
        <mxCell id="qw-UVNlcl3JzZN6nI1bn-315" value="" style="shape=ext;double=1;whiteSpace=wrap;html=1;aspect=fixed;fillColor=#000000;fontSize=5;" vertex="1" parent="1">
          <mxGeometry x="990" y="-450" width="20" height="20" as="geometry" />
        </mxCell>
        <mxCell id="qw-UVNlcl3JzZN6nI1bn-316" value="" style="shape=ext;double=1;whiteSpace=wrap;html=1;aspect=fixed;fillColor=#000000;fontSize=5;" vertex="1" parent="1">
          <mxGeometry x="1120" y="-440" width="20" height="20" as="geometry" />
        </mxCell>
        <mxCell id="qw-UVNlcl3JzZN6nI1bn-317" value="" style="shape=ext;double=1;whiteSpace=wrap;html=1;aspect=fixed;fillColor=#000000;fontSize=5;" vertex="1" parent="1">
          <mxGeometry x="1010" y="-370" width="20" height="20" as="geometry" />
        </mxCell>
        <mxCell id="qw-UVNlcl3JzZN6nI1bn-318" value="" style="shape=ext;double=1;whiteSpace=wrap;html=1;aspect=fixed;fillColor=#000000;fontSize=5;" vertex="1" parent="1">
          <mxGeometry x="1060" y="-180" width="20" height="20" as="geometry" />
        </mxCell>
        <mxCell id="qw-UVNlcl3JzZN6nI1bn-319" value="" style="shape=ext;double=1;whiteSpace=wrap;html=1;aspect=fixed;fillColor=#000000;fontSize=5;" vertex="1" parent="1">
          <mxGeometry x="1140" y="-370" width="20" height="20" as="geometry" />
        </mxCell>
        <mxCell id="qw-UVNlcl3JzZN6nI1bn-320" value="" style="shape=ext;double=1;whiteSpace=wrap;html=1;aspect=fixed;fillColor=#000000;fontSize=5;" vertex="1" parent="1">
          <mxGeometry x="1420" y="-450" width="20" height="20" as="geometry" />
        </mxCell>
        <mxCell id="qw-UVNlcl3JzZN6nI1bn-321" value="" style="shape=ext;double=1;whiteSpace=wrap;html=1;aspect=fixed;fillColor=#000000;fontSize=5;" vertex="1" parent="1">
          <mxGeometry x="1100" y="-160" width="20" height="20" as="geometry" />
        </mxCell>
        <mxCell id="qw-UVNlcl3JzZN6nI1bn-322" value="" style="shape=ext;double=1;whiteSpace=wrap;html=1;aspect=fixed;fillColor=#000000;fontSize=5;" vertex="1" parent="1">
          <mxGeometry x="1160" y="-190" width="20" height="20" as="geometry" />
        </mxCell>
        <mxCell id="qw-UVNlcl3JzZN6nI1bn-324" value="" style="shape=ext;double=1;whiteSpace=wrap;html=1;aspect=fixed;fillColor=#000000;fontSize=5;" vertex="1" parent="1">
          <mxGeometry x="1060" y="-320" width="20" height="20" as="geometry" />
        </mxCell>
        <mxCell id="qw-UVNlcl3JzZN6nI1bn-325" value="" style="shape=ext;double=1;whiteSpace=wrap;html=1;aspect=fixed;fillColor=#000000;fontSize=5;" vertex="1" parent="1">
          <mxGeometry x="1540" y="-360" width="20" height="20" as="geometry" />
        </mxCell>
        <mxCell id="qw-UVNlcl3JzZN6nI1bn-326" value="" style="shape=ext;double=1;whiteSpace=wrap;html=1;aspect=fixed;fillColor=#000000;fontSize=5;" vertex="1" parent="1">
          <mxGeometry x="1420" y="-370" width="20" height="20" as="geometry" />
        </mxCell>
        <mxCell id="qw-UVNlcl3JzZN6nI1bn-327" value="" style="shape=ext;double=1;whiteSpace=wrap;html=1;aspect=fixed;fillColor=#000000;fontSize=5;" vertex="1" parent="1">
          <mxGeometry x="1540" y="-450" width="20" height="20" as="geometry" />
        </mxCell>
        <mxCell id="qw-UVNlcl3JzZN6nI1bn-361" value="" style="endArrow=none;html=1;fontSize=5;" edge="1" parent="1" source="qw-UVNlcl3JzZN6nI1bn-337" target="qw-UVNlcl3JzZN6nI1bn-354">
          <mxGeometry width="50" height="50" relative="1" as="geometry">
            <mxPoint x="1595" y="330" as="sourcePoint" />
            <mxPoint x="1330" y="200" as="targetPoint" />
          </mxGeometry>
        </mxCell>
        <mxCell id="qw-UVNlcl3JzZN6nI1bn-362" value="" style="endArrow=none;html=1;fontSize=5;" edge="1" parent="1" source="qw-UVNlcl3JzZN6nI1bn-334" target="qw-UVNlcl3JzZN6nI1bn-354">
          <mxGeometry width="50" height="50" relative="1" as="geometry">
            <mxPoint x="1280" y="250" as="sourcePoint" />
            <mxPoint x="1330" y="200" as="targetPoint" />
          </mxGeometry>
        </mxCell>
        <mxCell id="qw-UVNlcl3JzZN6nI1bn-363" value="" style="endArrow=none;html=1;fontSize=5;" edge="1" parent="1" source="qw-UVNlcl3JzZN6nI1bn-338" target="qw-UVNlcl3JzZN6nI1bn-354">
          <mxGeometry width="50" height="50" relative="1" as="geometry">
            <mxPoint x="1365" y="610" as="sourcePoint" />
            <mxPoint x="1550" y="530" as="targetPoint" />
          </mxGeometry>
        </mxCell>
        <mxCell id="qw-UVNlcl3JzZN6nI1bn-364" value="" style="endArrow=none;html=1;fontSize=5;" edge="1" parent="1" source="qw-UVNlcl3JzZN6nI1bn-335" target="qw-UVNlcl3JzZN6nI1bn-337">
          <mxGeometry width="50" height="50" relative="1" as="geometry">
            <mxPoint x="1150" y="160" as="sourcePoint" />
            <mxPoint x="1590" y="330" as="targetPoint" />
          </mxGeometry>
        </mxCell>
        <mxCell id="qw-UVNlcl3JzZN6nI1bn-366" value="" style="endArrow=none;html=1;fontSize=5;" edge="1" parent="1" source="qw-UVNlcl3JzZN6nI1bn-353" target="qw-UVNlcl3JzZN6nI1bn-341">
          <mxGeometry width="50" height="50" relative="1" as="geometry">
            <mxPoint x="1600" y="130" as="sourcePoint" />
            <mxPoint x="1330" y="200" as="targetPoint" />
          </mxGeometry>
        </mxCell>
        <mxCell id="qw-UVNlcl3JzZN6nI1bn-368" value="" style="endArrow=none;html=1;fontSize=5;" edge="1" parent="1" source="qw-UVNlcl3JzZN6nI1bn-338" target="qw-UVNlcl3JzZN6nI1bn-341">
          <mxGeometry width="50" height="50" relative="1" as="geometry">
            <mxPoint x="1360" y="610" as="sourcePoint" />
            <mxPoint x="1330" y="200" as="targetPoint" />
          </mxGeometry>
        </mxCell>
        <mxCell id="qw-UVNlcl3JzZN6nI1bn-369" value="" style="endArrow=none;html=1;fontSize=5;" edge="1" parent="1" source="qw-UVNlcl3JzZN6nI1bn-381" target="qw-UVNlcl3JzZN6nI1bn-338">
          <mxGeometry width="50" height="50" relative="1" as="geometry">
            <mxPoint x="1600" y="430" as="sourcePoint" />
            <mxPoint x="1360" y="610" as="targetPoint" />
          </mxGeometry>
        </mxCell>
        <mxCell id="qw-UVNlcl3JzZN6nI1bn-371" value="" style="endArrow=none;html=1;fontSize=5;" edge="1" parent="1" source="qw-UVNlcl3JzZN6nI1bn-352" target="qw-UVNlcl3JzZN6nI1bn-341">
          <mxGeometry width="50" height="50" relative="1" as="geometry">
            <mxPoint x="1280" y="250" as="sourcePoint" />
            <mxPoint x="1330" y="200" as="targetPoint" />
          </mxGeometry>
        </mxCell>
        <mxCell id="qw-UVNlcl3JzZN6nI1bn-373" value="" style="endArrow=none;html=1;fontSize=5;" edge="1" parent="1" source="qw-UVNlcl3JzZN6nI1bn-336" target="qw-UVNlcl3JzZN6nI1bn-335">
          <mxGeometry width="50" height="50" relative="1" as="geometry">
            <mxPoint x="1570" y="220" as="sourcePoint" />
            <mxPoint x="1150" y="160" as="targetPoint" />
          </mxGeometry>
        </mxCell>
        <mxCell id="qw-UVNlcl3JzZN6nI1bn-374" value="" style="endArrow=none;html=1;fontSize=5;" edge="1" parent="1" source="qw-UVNlcl3JzZN6nI1bn-339" target="qw-UVNlcl3JzZN6nI1bn-355">
          <mxGeometry width="50" height="50" relative="1" as="geometry">
            <mxPoint x="1280" y="250" as="sourcePoint" />
            <mxPoint x="1470" y="590" as="targetPoint" />
          </mxGeometry>
        </mxCell>
        <mxCell id="qw-UVNlcl3JzZN6nI1bn-375" value="" style="endArrow=none;html=1;fontSize=5;" edge="1" parent="1" source="qw-UVNlcl3JzZN6nI1bn-339" target="qw-UVNlcl3JzZN6nI1bn-335">
          <mxGeometry width="50" height="50" relative="1" as="geometry">
            <mxPoint x="1280" y="250" as="sourcePoint" />
            <mxPoint x="1330" y="200" as="targetPoint" />
          </mxGeometry>
        </mxCell>
        <mxCell id="qw-UVNlcl3JzZN6nI1bn-376" value="" style="endArrow=none;html=1;fontSize=5;" edge="1" parent="1" source="qw-UVNlcl3JzZN6nI1bn-333" target="qw-UVNlcl3JzZN6nI1bn-335">
          <mxGeometry width="50" height="50" relative="1" as="geometry">
            <mxPoint x="1070" y="370" as="sourcePoint" />
            <mxPoint x="1150" y="170" as="targetPoint" />
          </mxGeometry>
        </mxCell>
        <mxCell id="qw-UVNlcl3JzZN6nI1bn-377" value="" style="endArrow=none;html=1;fontSize=5;" edge="1" parent="1" source="qw-UVNlcl3JzZN6nI1bn-332" target="qw-UVNlcl3JzZN6nI1bn-340">
          <mxGeometry width="50" height="50" relative="1" as="geometry">
            <mxPoint x="1280" y="250" as="sourcePoint" />
            <mxPoint x="1490" y="140" as="targetPoint" />
          </mxGeometry>
        </mxCell>
        <mxCell id="qw-UVNlcl3JzZN6nI1bn-378" value="" style="endArrow=none;html=1;fontSize=5;" edge="1" parent="1" source="qw-UVNlcl3JzZN6nI1bn-352" target="qw-UVNlcl3JzZN6nI1bn-332">
          <mxGeometry width="50" height="50" relative="1" as="geometry">
            <mxPoint x="1240" y="600" as="sourcePoint" />
            <mxPoint x="1330" y="200" as="targetPoint" />
          </mxGeometry>
        </mxCell>
        <mxCell id="qw-UVNlcl3JzZN6nI1bn-379" value="" style="endArrow=none;html=1;fontSize=5;" edge="1" parent="1" source="qw-UVNlcl3JzZN6nI1bn-333" target="qw-UVNlcl3JzZN6nI1bn-340">
          <mxGeometry width="50" height="50" relative="1" as="geometry">
            <mxPoint x="1070" y="370" as="sourcePoint" />
            <mxPoint x="1480" y="150" as="targetPoint" />
          </mxGeometry>
        </mxCell>
        <mxCell id="qw-UVNlcl3JzZN6nI1bn-380" value="" style="endArrow=none;html=1;fontSize=5;" edge="1" parent="1" source="qw-UVNlcl3JzZN6nI1bn-352" target="qw-UVNlcl3JzZN6nI1bn-340">
          <mxGeometry width="50" height="50" relative="1" as="geometry">
            <mxPoint x="1240" y="600" as="sourcePoint" />
            <mxPoint x="1330" y="200" as="targetPoint" />
          </mxGeometry>
        </mxCell>
        <mxCell id="qw-UVNlcl3JzZN6nI1bn-382" value="" style="endArrow=none;html=1;fontSize=5;" edge="1" parent="1" source="qw-UVNlcl3JzZN6nI1bn-353" target="qw-UVNlcl3JzZN6nI1bn-381">
          <mxGeometry width="50" height="50" relative="1" as="geometry">
            <mxPoint x="1100" y="470" as="sourcePoint" />
            <mxPoint x="1600" y="430" as="targetPoint" />
          </mxGeometry>
        </mxCell>
        <mxCell id="qw-UVNlcl3JzZN6nI1bn-388" value="" style="group" vertex="1" connectable="0" parent="1">
          <mxGeometry x="1030" y="230" width="40" height="40" as="geometry" />
        </mxCell>
        <mxCell id="qw-UVNlcl3JzZN6nI1bn-396" value="" style="group" vertex="1" connectable="0" parent="1">
          <mxGeometry x="1310" y="360" width="60" height="30" as="geometry" />
        </mxCell>
        <mxCell id="qw-UVNlcl3JzZN6nI1bn-333" value="" style="shape=ext;double=1;whiteSpace=wrap;html=1;aspect=fixed;fillColor=#000000;fontSize=5;" vertex="1" parent="qw-UVNlcl3JzZN6nI1bn-396">
          <mxGeometry x="40" y="10" width="20" height="20" as="geometry" />
        </mxCell>
        <mxCell id="qw-UVNlcl3JzZN6nI1bn-350" value="&lt;p style=&quot;font-size: 18px&quot;&gt;&lt;font style=&quot;font-size: 18px&quot;&gt;1&lt;/font&gt;&lt;/p&gt;" style="text;html=1;strokeColor=none;fillColor=none;align=center;verticalAlign=middle;whiteSpace=wrap;rounded=0;fontSize=5;" vertex="1" parent="qw-UVNlcl3JzZN6nI1bn-396">
          <mxGeometry y="5" width="50" height="30" as="geometry" />
        </mxCell>
        <mxCell id="qw-UVNlcl3JzZN6nI1bn-398" value="" style="group" vertex="1" connectable="0" parent="1">
          <mxGeometry x="1560" y="125" width="60" height="20" as="geometry" />
        </mxCell>
        <mxCell id="qw-UVNlcl3JzZN6nI1bn-399" value="" style="group" vertex="1" connectable="0" parent="qw-UVNlcl3JzZN6nI1bn-398">
          <mxGeometry width="60" height="20" as="geometry" />
        </mxCell>
        <mxCell id="qw-UVNlcl3JzZN6nI1bn-430" value="" style="group" vertex="1" connectable="0" parent="qw-UVNlcl3JzZN6nI1bn-399">
          <mxGeometry y="-10" width="60" height="30" as="geometry" />
        </mxCell>
        <mxCell id="qw-UVNlcl3JzZN6nI1bn-431" value="" style="group" vertex="1" connectable="0" parent="qw-UVNlcl3JzZN6nI1bn-430">
          <mxGeometry width="60" height="30" as="geometry" />
        </mxCell>
        <mxCell id="qw-UVNlcl3JzZN6nI1bn-349" value="&lt;p style=&quot;font-size: 18px&quot;&gt;2&lt;/p&gt;" style="text;html=1;strokeColor=none;fillColor=none;align=center;verticalAlign=middle;whiteSpace=wrap;rounded=0;fontSize=5;" vertex="1" parent="qw-UVNlcl3JzZN6nI1bn-431">
          <mxGeometry y="10" width="40" height="20" as="geometry" />
        </mxCell>
        <mxCell id="qw-UVNlcl3JzZN6nI1bn-402" value="" style="group" vertex="1" connectable="0" parent="1">
          <mxGeometry x="1380" y="30" width="60" height="40" as="geometry" />
        </mxCell>
        <mxCell id="qw-UVNlcl3JzZN6nI1bn-443" value="" style="group" vertex="1" connectable="0" parent="qw-UVNlcl3JzZN6nI1bn-402">
          <mxGeometry y="20" width="60" height="20" as="geometry" />
        </mxCell>
        <mxCell id="qw-UVNlcl3JzZN6nI1bn-338" value="" style="shape=ext;double=1;whiteSpace=wrap;html=1;aspect=fixed;fillColor=#000000;fontSize=5;" vertex="1" parent="qw-UVNlcl3JzZN6nI1bn-443">
          <mxGeometry width="20" height="20" as="geometry" />
        </mxCell>
        <mxCell id="qw-UVNlcl3JzZN6nI1bn-343" value="&lt;p style=&quot;font-size: 18px&quot;&gt;5&lt;/p&gt;" style="text;html=1;strokeColor=none;fillColor=none;align=center;verticalAlign=middle;whiteSpace=wrap;rounded=0;fontSize=5;" vertex="1" parent="qw-UVNlcl3JzZN6nI1bn-402">
          <mxGeometry x="-20" y="-10" width="40" height="20" as="geometry" />
        </mxCell>
        <mxCell id="qw-UVNlcl3JzZN6nI1bn-406" value="" style="group" vertex="1" connectable="0" parent="1">
          <mxGeometry x="1120" y="120" width="60" height="50" as="geometry" />
        </mxCell>
        <mxCell id="qw-UVNlcl3JzZN6nI1bn-438" value="" style="group" vertex="1" connectable="0" parent="qw-UVNlcl3JzZN6nI1bn-406">
          <mxGeometry x="10" y="-10" width="40" height="50" as="geometry" />
        </mxCell>
        <mxCell id="qw-UVNlcl3JzZN6nI1bn-347" value="&lt;p style=&quot;font-size: 18px&quot;&gt;9&lt;/p&gt;" style="text;html=1;strokeColor=none;fillColor=none;align=center;verticalAlign=middle;whiteSpace=wrap;rounded=0;fontSize=5;" vertex="1" parent="qw-UVNlcl3JzZN6nI1bn-438">
          <mxGeometry width="40" height="25" as="geometry" />
        </mxCell>
        <mxCell id="qw-UVNlcl3JzZN6nI1bn-337" value="" style="shape=ext;double=1;whiteSpace=wrap;html=1;aspect=fixed;fillColor=#000000;fontSize=5;" vertex="1" parent="qw-UVNlcl3JzZN6nI1bn-438">
          <mxGeometry x="10" y="25" width="20" height="20" as="geometry" />
        </mxCell>
        <mxCell id="qw-UVNlcl3JzZN6nI1bn-407" value="" style="group" vertex="1" connectable="0" parent="1">
          <mxGeometry x="1710" y="-210" width="50" height="50" as="geometry" />
        </mxCell>
        <mxCell id="qw-UVNlcl3JzZN6nI1bn-408" value="" style="group" vertex="1" connectable="0" parent="qw-UVNlcl3JzZN6nI1bn-407">
          <mxGeometry width="50" height="50" as="geometry" />
        </mxCell>
        <mxCell id="qw-UVNlcl3JzZN6nI1bn-409" value="" style="group" vertex="1" connectable="0" parent="qw-UVNlcl3JzZN6nI1bn-408">
          <mxGeometry width="50" height="50" as="geometry" />
        </mxCell>
        <mxCell id="qw-UVNlcl3JzZN6nI1bn-410" value="" style="group" vertex="1" connectable="0" parent="qw-UVNlcl3JzZN6nI1bn-409">
          <mxGeometry width="50" height="50" as="geometry" />
        </mxCell>
        <mxCell id="qw-UVNlcl3JzZN6nI1bn-414" value="" style="group" vertex="1" connectable="0" parent="qw-UVNlcl3JzZN6nI1bn-410">
          <mxGeometry x="10" width="50" height="50" as="geometry" />
        </mxCell>
        <mxCell id="qw-UVNlcl3JzZN6nI1bn-439" value="" style="group" vertex="1" connectable="0" parent="qw-UVNlcl3JzZN6nI1bn-414">
          <mxGeometry x="-760" y="505" width="40" height="45" as="geometry" />
        </mxCell>
        <mxCell id="qw-UVNlcl3JzZN6nI1bn-342" value="&lt;p style=&quot;font-size: 18px&quot;&gt;&lt;font style=&quot;font-size: 18px&quot;&gt;10&lt;/font&gt;&lt;/p&gt;" style="text;html=1;strokeColor=none;fillColor=none;align=center;verticalAlign=middle;whiteSpace=wrap;rounded=0;fontSize=5;" vertex="1" parent="qw-UVNlcl3JzZN6nI1bn-439">
          <mxGeometry x="10" y="-10" width="40" height="25" as="geometry" />
        </mxCell>
        <mxCell id="qw-UVNlcl3JzZN6nI1bn-415" value="" style="group" vertex="1" connectable="0" parent="1">
          <mxGeometry x="1190" y="480" width="100" height="120" as="geometry" />
        </mxCell>
        <mxCell id="qw-UVNlcl3JzZN6nI1bn-423" value="" style="group" vertex="1" connectable="0" parent="1">
          <mxGeometry x="1360" y="125" width="60" height="40" as="geometry" />
        </mxCell>
        <mxCell id="qw-UVNlcl3JzZN6nI1bn-440" value="" style="group" vertex="1" connectable="0" parent="qw-UVNlcl3JzZN6nI1bn-423">
          <mxGeometry width="60" height="40" as="geometry" />
        </mxCell>
        <mxCell id="qw-UVNlcl3JzZN6nI1bn-359" value="&lt;p style=&quot;font-size: 18px&quot;&gt;&lt;font style=&quot;font-size: 18px&quot;&gt;12&lt;/font&gt;&lt;/p&gt;" style="text;html=1;strokeColor=none;fillColor=none;align=center;verticalAlign=middle;whiteSpace=wrap;rounded=0;fontSize=5;" vertex="1" parent="qw-UVNlcl3JzZN6nI1bn-440">
          <mxGeometry width="40" height="20" as="geometry" />
        </mxCell>
        <mxCell id="qw-UVNlcl3JzZN6nI1bn-341" value="" style="shape=ext;double=1;whiteSpace=wrap;html=1;aspect=fixed;fillColor=#000000;fontSize=5;" vertex="1" parent="qw-UVNlcl3JzZN6nI1bn-440">
          <mxGeometry x="40" y="20" width="20" height="20" as="geometry" />
        </mxCell>
        <mxCell id="qw-UVNlcl3JzZN6nI1bn-442" value="" style="group" vertex="1" connectable="0" parent="1">
          <mxGeometry x="1020" y="30" width="60" height="40" as="geometry" />
        </mxCell>
        <mxCell id="qw-UVNlcl3JzZN6nI1bn-424" value="" style="group" vertex="1" connectable="0" parent="qw-UVNlcl3JzZN6nI1bn-442">
          <mxGeometry width="60" height="30" as="geometry" />
        </mxCell>
        <mxCell id="qw-UVNlcl3JzZN6nI1bn-358" value="&lt;p style=&quot;font-size: 18px&quot;&gt;&lt;font style=&quot;font-size: 18px&quot;&gt;13&lt;/font&gt;&lt;/p&gt;" style="text;html=1;strokeColor=none;fillColor=none;align=center;verticalAlign=middle;whiteSpace=wrap;rounded=0;fontSize=5;" vertex="1" parent="qw-UVNlcl3JzZN6nI1bn-424">
          <mxGeometry width="40" height="20" as="geometry" />
        </mxCell>
        <mxCell id="qw-UVNlcl3JzZN6nI1bn-334" value="" style="shape=ext;double=1;whiteSpace=wrap;html=1;aspect=fixed;fillColor=#000000;fontSize=5;" vertex="1" parent="qw-UVNlcl3JzZN6nI1bn-442">
          <mxGeometry x="20" y="20" width="20" height="20" as="geometry" />
        </mxCell>
        <mxCell id="qw-UVNlcl3JzZN6nI1bn-348" value="&lt;p style=&quot;font-size: 18px&quot;&gt;3&lt;/p&gt;" style="text;html=1;strokeColor=none;fillColor=none;align=center;verticalAlign=middle;whiteSpace=wrap;rounded=0;fontSize=5;" vertex="1" parent="1">
          <mxGeometry x="1040" y="400" width="40" height="20" as="geometry" />
        </mxCell>
        <mxCell id="qw-UVNlcl3JzZN6nI1bn-339" value="" style="shape=ext;double=1;whiteSpace=wrap;html=1;aspect=fixed;fillColor=#000000;fontSize=5;" vertex="1" parent="1">
          <mxGeometry x="1070" y="380" width="20" height="20" as="geometry" />
        </mxCell>
        <mxCell id="qw-UVNlcl3JzZN6nI1bn-340" value="" style="shape=ext;double=1;whiteSpace=wrap;html=1;aspect=fixed;fillColor=#000000;fontSize=5;" vertex="1" parent="1">
          <mxGeometry x="1510" y="250" width="20" height="20" as="geometry" />
        </mxCell>
        <mxCell id="qw-UVNlcl3JzZN6nI1bn-332" value="" style="shape=ext;double=1;whiteSpace=wrap;html=1;aspect=fixed;fillColor=#000000;fontSize=5;" vertex="1" parent="1">
          <mxGeometry x="1510" y="410" width="20" height="20" as="geometry" />
        </mxCell>
        <mxCell id="qw-UVNlcl3JzZN6nI1bn-356" value="&lt;p style=&quot;font-size: 18px&quot;&gt;&lt;font style=&quot;font-size: 18px&quot;&gt;15&lt;/font&gt;&lt;/p&gt;" style="text;html=1;strokeColor=none;fillColor=none;align=center;verticalAlign=middle;whiteSpace=wrap;rounded=0;fontSize=5;" vertex="1" parent="1">
          <mxGeometry x="1530" y="420" width="40" height="20" as="geometry" />
        </mxCell>
        <mxCell id="qw-UVNlcl3JzZN6nI1bn-360" value="&lt;p style=&quot;font-size: 18px&quot;&gt;&lt;font style=&quot;font-size: 18px&quot;&gt;11&lt;/font&gt;&lt;/p&gt;" style="text;html=1;strokeColor=none;fillColor=none;align=center;verticalAlign=middle;whiteSpace=wrap;rounded=0;fontSize=5;" vertex="1" parent="1">
          <mxGeometry x="1530" y="250" width="40" height="20" as="geometry" />
        </mxCell>
        <mxCell id="qw-UVNlcl3JzZN6nI1bn-453" value="" style="endArrow=none;html=1;fontSize=5;exitX=1;exitY=0.5;exitDx=0;exitDy=0;" edge="1" parent="1" source="qw-UVNlcl3JzZN6nI1bn-350" target="qw-UVNlcl3JzZN6nI1bn-332">
          <mxGeometry width="50" height="50" relative="1" as="geometry">
            <mxPoint x="1290" y="250" as="sourcePoint" />
            <mxPoint x="1340" y="200" as="targetPoint" />
          </mxGeometry>
        </mxCell>
        <mxCell id="qw-UVNlcl3JzZN6nI1bn-454" value="" style="endArrow=none;html=1;fontSize=5;" edge="1" parent="1" source="qw-UVNlcl3JzZN6nI1bn-23" target="qw-UVNlcl3JzZN6nI1bn-24">
          <mxGeometry width="50" height="50" relative="1" as="geometry">
            <mxPoint x="490" y="350" as="sourcePoint" />
            <mxPoint x="540" y="300" as="targetPoint" />
          </mxGeometry>
        </mxCell>
        <mxCell id="qw-UVNlcl3JzZN6nI1bn-455" value="" style="endArrow=none;html=1;fontSize=5;" edge="1" parent="1" source="qw-UVNlcl3JzZN6nI1bn-336" target="qw-UVNlcl3JzZN6nI1bn-339">
          <mxGeometry width="50" height="50" relative="1" as="geometry">
            <mxPoint x="1040" y="180" as="sourcePoint" />
            <mxPoint x="1410" y="200" as="targetPoint" />
          </mxGeometry>
        </mxCell>
        <mxCell id="qw-UVNlcl3JzZN6nI1bn-456" value="" style="endArrow=none;html=1;fontSize=5;" edge="1" parent="1" source="qw-UVNlcl3JzZN6nI1bn-30" target="qw-UVNlcl3JzZN6nI1bn-27">
          <mxGeometry width="50" height="50" relative="1" as="geometry">
            <mxPoint x="500" y="350" as="sourcePoint" />
            <mxPoint x="550" y="300" as="targetPoint" />
          </mxGeometry>
        </mxCell>
        <mxCell id="qw-UVNlcl3JzZN6nI1bn-457" value="" style="endArrow=none;html=1;fontSize=5;" edge="1" parent="1" source="qw-UVNlcl3JzZN6nI1bn-337" target="qw-UVNlcl3JzZN6nI1bn-334">
          <mxGeometry width="50" height="50" relative="1" as="geometry">
            <mxPoint x="1320" y="250" as="sourcePoint" />
            <mxPoint x="1370" y="200" as="targetPoint" />
          </mxGeometry>
        </mxCell>
        <mxCell id="qw-UVNlcl3JzZN6nI1bn-458" value="" style="endArrow=none;html=1;fontSize=5;" edge="1" parent="1" source="qw-UVNlcl3JzZN6nI1bn-25">
          <mxGeometry width="50" height="50" relative="1" as="geometry">
            <mxPoint x="490" y="300" as="sourcePoint" />
            <mxPoint x="660" y="300" as="targetPoint" />
          </mxGeometry>
        </mxCell>
        <mxCell id="qw-UVNlcl3JzZN6nI1bn-355" value="" style="shape=ext;double=1;whiteSpace=wrap;html=1;aspect=fixed;fillColor=#000000;fontSize=5;" vertex="1" parent="1">
          <mxGeometry x="1190" y="380" width="20" height="20" as="geometry" />
        </mxCell>
        <mxCell id="qw-UVNlcl3JzZN6nI1bn-344" value="&lt;p style=&quot;font-size: 18px&quot;&gt;&lt;font style=&quot;font-size: 18px&quot;&gt;6&lt;/font&gt;&lt;/p&gt;" style="text;html=1;strokeColor=none;fillColor=none;align=center;verticalAlign=middle;whiteSpace=wrap;rounded=0;fontSize=5;" vertex="1" parent="1">
          <mxGeometry x="1180" y="410" width="20" height="20" as="geometry" />
        </mxCell>
        <mxCell id="qw-UVNlcl3JzZN6nI1bn-459" value="" style="endArrow=none;html=1;fontSize=5;entryX=0.5;entryY=1;entryDx=0;entryDy=0;" edge="1" parent="1" source="qw-UVNlcl3JzZN6nI1bn-341" target="qw-UVNlcl3JzZN6nI1bn-381">
          <mxGeometry width="50" height="50" relative="1" as="geometry">
            <mxPoint x="1300" y="230" as="sourcePoint" />
            <mxPoint x="1350" y="180" as="targetPoint" />
          </mxGeometry>
        </mxCell>
        <mxCell id="qw-UVNlcl3JzZN6nI1bn-460" value="" style="endArrow=none;html=1;fontSize=5;" edge="1" parent="1" source="qw-UVNlcl3JzZN6nI1bn-70">
          <mxGeometry width="50" height="50" relative="1" as="geometry">
            <mxPoint x="460" y="330" as="sourcePoint" />
            <mxPoint x="445" y="40" as="targetPoint" />
          </mxGeometry>
        </mxCell>
        <mxCell id="qw-UVNlcl3JzZN6nI1bn-461" value="" style="endArrow=none;html=1;fontSize=5;exitX=0.75;exitY=1;exitDx=0;exitDy=0;" edge="1" parent="1" source="qw-UVNlcl3JzZN6nI1bn-333" target="qw-UVNlcl3JzZN6nI1bn-352">
          <mxGeometry width="50" height="50" relative="1" as="geometry">
            <mxPoint x="1300" y="250" as="sourcePoint" />
            <mxPoint x="1350" y="200" as="targetPoint" />
          </mxGeometry>
        </mxCell>
        <mxCell id="qw-UVNlcl3JzZN6nI1bn-462" value="" style="endArrow=none;html=1;fontSize=5;" edge="1" parent="1" source="qw-UVNlcl3JzZN6nI1bn-24" target="qw-UVNlcl3JzZN6nI1bn-66">
          <mxGeometry width="50" height="50" relative="1" as="geometry">
            <mxPoint x="570" y="350" as="sourcePoint" />
            <mxPoint x="620" y="300" as="targetPoint" />
          </mxGeometry>
        </mxCell>
        <mxCell id="qw-UVNlcl3JzZN6nI1bn-463" value="" style="endArrow=none;html=1;fontSize=5;" edge="1" parent="1" source="qw-UVNlcl3JzZN6nI1bn-335" target="qw-UVNlcl3JzZN6nI1bn-355">
          <mxGeometry width="50" height="50" relative="1" as="geometry">
            <mxPoint x="1078" y="258" as="sourcePoint" />
            <mxPoint x="1410" y="180" as="targetPoint" />
          </mxGeometry>
        </mxCell>
        <mxCell id="qw-UVNlcl3JzZN6nI1bn-464" value="" style="endArrow=none;html=1;fontSize=5;" edge="1" parent="1" source="qw-UVNlcl3JzZN6nI1bn-69" target="qw-UVNlcl3JzZN6nI1bn-26">
          <mxGeometry width="50" height="50" relative="1" as="geometry">
            <mxPoint x="620" y="350" as="sourcePoint" />
            <mxPoint x="670" y="300" as="targetPoint" />
          </mxGeometry>
        </mxCell>
        <mxCell id="qw-UVNlcl3JzZN6nI1bn-354" value="" style="shape=ext;double=1;whiteSpace=wrap;html=1;aspect=fixed;fillColor=#000000;fontSize=5;" vertex="1" parent="1">
          <mxGeometry x="1180" y="20" width="20" height="20" as="geometry" />
        </mxCell>
        <mxCell id="qw-UVNlcl3JzZN6nI1bn-345" value="&lt;p style=&quot;font-size: 18px&quot;&gt;7&lt;/p&gt;" style="text;html=1;strokeColor=none;fillColor=none;align=center;verticalAlign=middle;whiteSpace=wrap;rounded=0;fontSize=5;" vertex="1" parent="1">
          <mxGeometry x="1150" y="-10" width="40" height="20" as="geometry" />
        </mxCell>
        <mxCell id="qw-UVNlcl3JzZN6nI1bn-437" value="" style="group" vertex="1" connectable="0" parent="1">
          <mxGeometry x="1510" y="5" width="40" height="50" as="geometry" />
        </mxCell>
        <mxCell id="qw-UVNlcl3JzZN6nI1bn-346" value="&lt;p style=&quot;font-size: 18px&quot;&gt;8&lt;/p&gt;" style="text;html=1;strokeColor=none;fillColor=none;align=center;verticalAlign=middle;whiteSpace=wrap;rounded=0;fontSize=5;" vertex="1" parent="qw-UVNlcl3JzZN6nI1bn-437">
          <mxGeometry width="40" height="20" as="geometry" />
        </mxCell>
        <mxCell id="qw-UVNlcl3JzZN6nI1bn-352" value="" style="shape=ext;double=1;whiteSpace=wrap;html=1;aspect=fixed;fillColor=#000000;fontSize=5;" vertex="1" parent="1">
          <mxGeometry x="1360" y="250" width="20" height="20" as="geometry" />
        </mxCell>
        <mxCell id="qw-UVNlcl3JzZN6nI1bn-381" value="" style="shape=ext;double=1;whiteSpace=wrap;html=1;aspect=fixed;fillColor=#000000;fontSize=5;" vertex="1" parent="1">
          <mxGeometry x="1520" y="30" width="20" height="20" as="geometry" />
        </mxCell>
        <mxCell id="qw-UVNlcl3JzZN6nI1bn-351" value="&lt;p style=&quot;font-size: 18px&quot;&gt;4&lt;/p&gt;" style="text;html=1;strokeColor=none;fillColor=none;align=center;verticalAlign=middle;whiteSpace=wrap;rounded=0;fontSize=5;" vertex="1" parent="1">
          <mxGeometry x="1320" y="250" width="40" height="20" as="geometry" />
        </mxCell>
        <mxCell id="qw-UVNlcl3JzZN6nI1bn-335" value="" style="shape=ext;double=1;whiteSpace=wrap;html=1;aspect=fixed;fillColor=#000000;fontSize=12;" vertex="1" parent="1">
          <mxGeometry x="1140" y="240" width="20" height="20" as="geometry" />
        </mxCell>
        <mxCell id="qw-UVNlcl3JzZN6nI1bn-336" value="" style="shape=ext;double=1;whiteSpace=wrap;html=1;aspect=fixed;fillColor=#000000;fontSize=5;" vertex="1" parent="1">
          <mxGeometry x="1010" y="285" width="20" height="20" as="geometry" />
        </mxCell>
        <mxCell id="qw-UVNlcl3JzZN6nI1bn-357" value="&lt;p style=&quot;font-size: 18px&quot;&gt;&lt;font style=&quot;font-size: 18px&quot;&gt;14&lt;/font&gt;&lt;/p&gt;" style="text;html=1;strokeColor=none;fillColor=none;align=center;verticalAlign=middle;whiteSpace=wrap;rounded=0;fontSize=5;" vertex="1" parent="1">
          <mxGeometry x="1084" y="220" width="32" height="20" as="geometry" />
        </mxCell>
        <mxCell id="qw-UVNlcl3JzZN6nI1bn-353" value="" style="shape=ext;double=1;whiteSpace=wrap;html=1;aspect=fixed;fillColor=#000000;fontSize=5;" vertex="1" parent="1">
          <mxGeometry x="1540" y="130" width="20" height="20" as="geometry" />
        </mxCell>
      </root>
    </mxGraphModel>
  </diagram>
</mxfile>
